# xmcd
#
# Track frame offsets:
#	150
#	22694
#	37276
#	57067
#	72081
#	86200
#	104944
#	124374
#	148313
#	165637
#	184084
#	204339
#	221507
#	241517
#	256559
#	280995
#
# Disc length: 3973 seconds
#
# Revision: 0
# Processed by: cddbd v1.5.2PL0 Copyright (c) Steve Scherf et al.
# Submitted via: EasyCDDAExtractor 12.0.1.1
#
DISCID=ea0f8310
DTITLE=Various Artist - Temple of Hip Hop
DYEAR=2007
DGENRE=Hip Hop
TTITLE0=Method man - All My Niggas ft. Streetlife
TTITLE1=G Unit - 50 Cent Just Fucking Around ft. 50 Cent and Tony Yayo
TTITLE2=Daz Dillinger - Gonna Hurt Somebody
TTITLE3=JT The Bigga Figga - When Sh*t Get Thick ft. The Game and Sean T
TTITLE4=Prodigy - Mobb N**Gazz ft. Infamous
TTITLE5=Young Buck - Working With Something
TTITLE6=Dr. Dre - Gang Bang (X-rated version)
TTITLE7=King Tee - The Coolest
TTITLE8=DMX - Originial Bad Boys ft. Xzibit and 2Pac
TTITLE9=The Unknown DJ - Breakdown
TTITLE10=First Born - Purse First, Ass Last ft. Young Buck and Bun B
TTITLE11=Fila Fresh Crew - Out of K's
TTITLE12=Junior M.A.F.I.A. - Real Niggas
TTITLE13=McDeathrow - Godfather
TTITLE14=Never Again Family - Sittin' On
TTITLE15=Snoop Dogg - Cali-California
EXTD=
EXTT0=
EXTT1=
EXTT2=
EXTT3=
EXTT4=
EXTT5=
EXTT6=
EXTT7=
EXTT8=
EXTT9=
EXTT10=
EXTT11=
EXTT12=
EXTT13=
EXTT14=
EXTT15=
PLAYORDER=
